<?xml version="1.0" encoding="UTF-8"?>
<svg width="24px" height="20px" viewBox="0 0 24 20" version="1.1" xmlns="http://www.w3.org/2000/svg" xmlns:xlink="http://www.w3.org/1999/xlink">
    <title>Untitled 2</title>
    <g id="Page-1" stroke="none" stroke-width="1" fill="none" fill-rule="evenodd">
        <g id="twitter" transform="translate(0, -0)" fill="#000000" fill-rule="nonzero">
            <path d="M11.6533695,5.3203132 L11.7053934,6.1853696 L10.8383272,6.0794443 C7.6822064,5.6733974 4.9249359,4.2963689 2.5838572,1.983667 L1.4393298,0.836143304 L1.1445274,1.6835454 C0.5202397,3.5725462 0.9190901,5.5674721 2.2196894,6.9091923 C2.9133423,7.6506692 2.7572705,7.7565944 1.5607191,7.3152392 C1.1445274,7.1740054 0.7803596,7.0680802 0.7456769,7.1210428 C0.6242877,7.2446223 1.0404794,8.8511556 1.3699646,9.4867073 C1.820839,10.3694178 2.7399291,11.2344743 3.7457259,11.7464464 L4.5954508,12.1524933 L3.589654,12.1701475 C2.6185399,12.1701475 2.5838572,12.1878018 2.6879052,12.5585402 C3.0347316,13.706064 4.4046962,14.9242046 5.9307327,15.453831 L7.0058948,15.8245694 L6.0694633,16.3895042 C4.6821574,17.201598 3.052073,17.6606075 1.4219886,17.6959159 C0.641629,17.7135702 0,17.784187 0,17.8371497 C0,18.0136917 2.1156414,19.0023277 3.3468754,19.3907203 C7.0405774,20.5382442 11.4279322,20.0439262 14.7227837,18.0843086 C17.0638624,16.6896258 19.4049411,13.9179145 20.4974445,11.2344743 C21.0870495,9.8044831 21.6766546,7.1916597 21.6766546,5.9382106 C21.6766546,5.1261169 21.7286785,5.0201916 22.6997926,4.0492099 C23.2720563,3.4842751 23.8096373,2.8663777 23.9136853,2.6898355 C24.0870985,2.3544055 24.0697572,2.3544055 23.1853497,2.6545271 C21.7113371,3.1841535 21.5032413,3.1135366 22.2315769,2.3190971 C22.7691579,1.7541623 23.4107868,0.730218004 23.4107868,0.430096404 C23.4107868,0.377133804 23.150667,0.465404804 22.8558645,0.624292704 C22.5437207,0.800834904 21.8500677,1.065648 21.3298281,1.2245359 L20.3933965,1.5246575 L19.5436717,0.942068504 C19.075456,0.624292704 18.4164856,0.271208404 18.0696592,0.165283204 C17.1852517,-0.0818757956 15.8326284,-0.0465673956 15.0349276,0.235900004 C12.8672621,1.0303396 11.4972976,3.0782282 11.6533695,5.3203132 Z" id="Combined-Shape"></path>
        </g>
    </g>
</svg>